# xmcd
#
# Track frame offsets: 
#        150
#        17387
#        30735
#        55655
#        67805
#        90445
#        111057
#        124860
#        144250
#        156657
#        174750
#        197187
#
# Disc length: 2962 seconds
#
# Revision: 0
# Processed by: cddbd v1.5.2PL0 Copyright (c) Steve Scherf et al.
# Submitted via: ExactAudioCopy v0.95b3
#
DISCID=910b900c
DTITLE=Walt Mills - In Our New Home
DYEAR=2002
DGENRE=Gospel
TTITLE0=Jesus, You're Welcome Here
TTITLE1=The First Church
TTITLE2=The Touch of the Shepherd's Hand
TTITLE3=In Our New Home
TTITLE4=He's Walking Along Now Beside You
TTITLE5=He's Alive
TTITLE6=Too Hot For the Devil To Handle
TTITLE7=There Is No Other Fountain
TTITLE8=I'll Be There
TTITLE9=Praise Your Name Forever
TTITLE10=Father's House
TTITLE11=Thank You
EXTD=
EXTT0=
EXTT1=
EXTT2=
EXTT3=
EXTT4=
EXTT5=
EXTT6=
EXTT7=
EXTT8=
EXTT9=
EXTT10=
EXTT11=
PLAYORDER=
